<?xml version="1.0" encoding="UTF-8"?>
<svg version="1.1" xmlns="http://www.w3.org/2000/svg" width="32" height="32" viewBox="0 0 190 190">
<path d="M0 0 C1.1034375 -0.01933594 2.206875 -0.03867188 3.34375 -0.05859375 C7.75671228 0.6350278 10.09282258 2.6619732 12.828125 6.11328125 C17.38975112 14.21210051 17.20307758 23.073368 14.83203125 31.93359375 C14.10441587 34.12382686 13.3194427 36.28019166 12.5 38.4375 C11.9121875 40.2009375 11.9121875 40.2009375 11.3125 42 C11.044375 42.804375 10.77625 43.60875 10.5 44.4375 C11.16 44.4375 11.82 44.4375 12.5 44.4375 C16.5 48.90808824 16.5 48.90808824 16.5 51.4375 C17.16 51.4375 17.82 51.4375 18.5 51.4375 C19.7890625 53.1171875 19.7890625 53.1171875 21.125 55.3125 C21.57101563 56.03179687 22.01703125 56.75109375 22.4765625 57.4921875 C23.5 59.4375 23.5 59.4375 23.5 61.4375 C24.675625 61.086875 25.85125 60.73625 27.0625 60.375 C31.18210863 59.36329399 34.34001985 59.33863732 38.5 60.4375 C41.87593285 62.61310117 44.31143182 64.5476405 45.5 68.4375 C46.29483249 75.25034991 44.71123167 79.08745639 40.5 84.4375 C38.39540346 86.8203903 36.39964755 88.13765799 33.5 89.4375 C33.53480469 90.2625 33.56960937 91.0875 33.60546875 91.9375 C34.03352358 110.20117282 30.13057167 128.818721 18.5 143.4375 C17.84 143.4375 17.18 143.4375 16.5 143.4375 C16.1596875 144.241875 16.1596875 144.241875 15.8125 145.0625 C14.04429911 148.26210161 11.96329797 150.72787223 9.5 153.4375 C8.84 153.4375 8.18 153.4375 7.5 153.4375 C7.17 154.4275 6.84 155.4175 6.5 156.4375 C-10.14289034 170.29291117 -29.94296099 177.99378736 -51.5 178.4375 C-52.76263672 178.47617187 -52.76263672 178.47617187 -54.05078125 178.515625 C-56.72135709 178.59382634 -59.39112971 178.64524159 -62.0625 178.6875 C-62.89531494 178.7090918 -63.72812988 178.73068359 -64.58618164 178.75292969 C-69.95667181 178.78112978 -73.58783352 177.8066935 -78.5 175.4375 C-80.6382688 174.80708381 -82.78425266 174.20218625 -84.9375 173.625 C-89.96869033 172.11449423 -93.51831265 170.39260667 -97.51171875 167.0234375 C-100.63440684 164.53264896 -104.11569657 162.68292301 -107.59375 160.734375 C-108.2228125 160.30640625 -108.851875 159.8784375 -109.5 159.4375 C-109.5 158.7775 -109.5 158.1175 -109.5 157.4375 C-110.06203125 157.21320313 -110.6240625 156.98890625 -111.203125 156.7578125 C-122.99772143 149.97792544 -129.81189696 133.05464736 -134 120.8125 C-138.64491751 102.79022006 -135.8788767 82.893521 -127.5 66.4375 C-126.39902443 64.8991854 -125.27491029 63.377087 -124.125 61.875 C-121.05782872 57.50897558 -121.26380927 54.61596496 -122.05078125 49.4609375 C-123.7776793 37.8381628 -122.25565196 29.19767353 -116.625 19.0625 C-113.72989858 15.48619825 -111.09956778 12.97138436 -106.46484375 12.01953125 C-99.99774265 11.59751583 -94.7838157 13.82555153 -89.5 17.4375 C-87.1974737 19.65305214 -85.41928408 21.86161873 -83.5 24.4375 C-82.324375 24.169375 -81.14875 23.90125 -79.9375 23.625 C-60.61292181 19.33064929 -44.96563157 17.60370621 -25.5 21.4375 C-25.23832031 20.53257813 -24.97664063 19.62765625 -24.70703125 18.6953125 C-21.08178132 8.91065736 -10.49503855 0.01226056 0 0 Z " fill="#413B35" transform="translate(142.5,5.5625)"/>
<path d="M0 0 C3.91273229 3.39771086 6.55889648 7.394367 9.13671875 11.85546875 C9.57242188 12.5928125 10.008125 13.33015625 10.45703125 14.08984375 C14.69649034 22.6873482 14.46376821 33.69136325 12.4765625 42.921875 C8.52626121 53.84933181 0.00561261 62.7611729 -10.36328125 67.73046875 C-19.61062823 71.29069734 -29.03416118 71.3103113 -38.30078125 67.79296875 C-47.79422761 63.23101735 -53.01178825 57.07948569 -57.86328125 47.85546875 C-58.22679688 47.21996094 -58.5903125 46.58445313 -58.96484375 45.9296875 C-62.5286047 37.7020481 -62.0420479 26.32196539 -59.23828125 17.98046875 C-54.8510469 7.51860223 -47.01109763 -0.48348332 -36.8203125 -5.41796875 C-24.33689116 -10.05253236 -10.63430674 -7.51639481 0 0 Z " fill="#716257" transform="translate(143.86328125,64.14453125)"/>
<path d="M0 0 C5.50579647 3.66792407 8.22631167 7.90524668 9.8125 14.25 C10.23613606 22.72272121 9.00074619 30.10007635 6 38 C5.4121875 39.7634375 5.4121875 39.7634375 4.8125 41.5625 C4.544375 42.366875 4.27625 43.17125 4 44 C4.66 44 5.32 44 6 44 C10 48.47058824 10 48.47058824 10 51 C10.66 51 11.32 51 12 51 C13.2890625 52.6796875 13.2890625 52.6796875 14.625 54.875 C15.07101563 55.59429687 15.51703125 56.31359375 15.9765625 57.0546875 C17 59 17 59 17 61 C18.175625 60.649375 19.35125 60.29875 20.5625 59.9375 C24.68210863 58.92579399 27.84001985 58.90113732 32 60 C35.37593285 62.17560117 37.81143182 64.1101405 39 68 C39.79483249 74.81284991 38.21123167 78.64995639 34 84 C31.89540346 86.3828903 29.89964755 87.70015799 27 89 C27.03480469 89.825 27.06960937 90.65 27.10546875 91.5 C27.53352358 109.76367282 23.63057167 128.381221 12 143 C11.34 143 10.68 143 10 143 C9.6596875 143.804375 9.6596875 143.804375 9.3125 144.625 C7.54429911 147.82460161 5.46329797 150.29037223 3 153 C2.34 153 1.68 153 1 153 C0.67 153.99 0.34 154.98 0 156 C-16.64289034 169.85541117 -36.44296099 177.55628736 -58 178 C-59.26263672 178.03867187 -59.26263672 178.03867187 -60.55078125 178.078125 C-63.22135709 178.15632634 -65.89112971 178.20774159 -68.5625 178.25 C-69.39531494 178.2715918 -70.22812988 178.29318359 -71.08618164 178.31542969 C-76.45667181 178.34362978 -80.08783352 177.3691935 -85 175 C-87.1382688 174.36958381 -89.28425266 173.76468625 -91.4375 173.1875 C-96.46869033 171.67699423 -100.01831265 169.95510667 -104.01171875 166.5859375 C-107.13440684 164.09514896 -110.61569657 162.24542301 -114.09375 160.296875 C-114.7228125 159.86890625 -115.351875 159.4409375 -116 159 C-116 158.34 -116 157.68 -116 157 C-116.56203125 156.77570313 -117.1240625 156.55140625 -117.703125 156.3203125 C-129.49772143 149.54042544 -136.31189696 132.61714736 -140.5 120.375 C-145.14491751 102.35272006 -142.3788767 82.456021 -134 66 C-132.89902443 64.4616854 -131.77491029 62.939587 -130.625 61.4375 C-127.55782872 57.07147558 -127.76380927 54.17846496 -128.55078125 49.0234375 C-130.2776793 37.4006628 -128.75565196 28.76017353 -123.125 18.625 C-120.63880203 15.55381427 -118.52581913 13.79747642 -115 12 C-111.125 11.75 -111.125 11.75 -108 12 C-108 12.99 -108 13.98 -108 15 C-109.5778125 15.37125 -109.5778125 15.37125 -111.1875 15.75 C-116.68637824 17.38749292 -119.79956629 20.20973562 -122.8125 25.0625 C-126.79914442 33.56565929 -126.37725966 44.60327009 -124.08984375 53.56640625 C-123.41206523 55.39082084 -122.68205087 57.19772171 -121.875 58.96875 C-121 61 -121 61 -121 64 C-121.66 64 -122.32 64 -123 64 C-123 62.35 -123 60.7 -123 59 C-123.66 59 -124.32 59 -125 59 C-125.28101562 59.7321875 -125.56203125 60.464375 -125.8515625 61.21875 C-126.89708681 63.75076805 -128.07914326 66.08987154 -129.375 68.5 C-137.96638961 85.47943272 -140.0484654 105.81255082 -134.34570312 124.02734375 C-131.91894484 130.98183462 -128.24577539 137.00439668 -124 143 C-123.49082031 143.73863281 -122.98164062 144.47726563 -122.45703125 145.23828125 C-120.62992482 147.44746356 -118.46140007 148.52937533 -115.95703125 149.86328125 C-113.81609322 151.10682011 -111.94540613 152.53261751 -110 154.0625 C-106.48803898 156.77192306 -103.14502746 158.4456147 -99 160 C-99 160.66 -99 161.32 -99 162 C-97.515 162.1546875 -97.515 162.1546875 -96 162.3125 C-93.2039717 162.70472842 -90.8036159 163.38252862 -88.1875 164.4375 C-70.52929576 171.31949975 -48.00486986 170.27728944 -30 165 C-27.90336809 163.65670412 -27.90336809 163.65670412 -26 162 C-24.70031687 161.30867919 -23.38600912 160.64453418 -22.0625 160 C-17.52693326 157.78279916 -13.51794621 155.67090039 -10 152 C-6.33333333 149 -6.33333333 149 -4 149 C-3.67 148.01 -3.34 147.02 -3 146 C-1.50390625 144.66796875 -1.50390625 144.66796875 0.4375 143.1875 C11.39269994 133.88740221 20.43042473 119.34518796 22 105 C22.46635996 99.00660827 22.75139353 93.00580897 23 87 C22.23171875 86.86335938 21.4634375 86.72671875 20.671875 86.5859375 C17.58896342 85.9098604 15.55276655 84.84366473 13 83 C11.99503148 79.98509443 11.89664697 77.95818308 11.9375 74.8125 C11.94652344 73.91144531 11.95554688 73.01039062 11.96484375 72.08203125 C11.98224609 71.05142578 11.98224609 71.05142578 12 70 C12.66 69.67 13.32 69.34 14 69 C13.95875 70.051875 13.9175 71.10375 13.875 72.1875 C13.99596269 75.87686194 14.13346864 77.86083363 16 81 C18.81794516 83.31697713 20.98747474 84.77773836 24.5625 85.5625 C29.16656607 84.50002322 31.48925782 80.76611327 34 77 C34.83435826 72.3100283 34.5868632 68.94655354 32.0625 64.875 C28.31491322 62.58055911 26.4047636 62.75905726 22.18359375 63.41015625 C19.92819997 64.019395 18.04574815 64.88202879 16 66 C15.505 64.88625 15.01 63.7725 14.5 62.625 C11.75387934 57.14246229 7.99173217 52.62160626 4 48 C3.46632812 47.36964844 2.93265625 46.73929688 2.3828125 46.08984375 C-8.62014402 34.0741773 -25.64804071 28.11793732 -41 24 C-41 23.67 -41 23.34 -41 23 C-37.31886285 22.92487475 -33.89754472 23.01536829 -30.25 23.5625 C-26.99617038 24.24314938 -26.99617038 24.24314938 -24 23 C-24 23.99 -24 24.98 -24 26 C-23.19369141 26.14115234 -23.19369141 26.14115234 -22.37109375 26.28515625 C-19.27641989 27.21814689 -16.82403028 28.76247344 -14.0625 30.4375 C-8.18664653 33.99569698 -3.97035918 36.32420275 3 36 C3.97480569 31.11049844 4.15115028 26.45983692 4.125 21.5 C4.12886719 20.76652344 4.13273438 20.03304688 4.13671875 19.27734375 C4.12923589 15.09442672 3.98344601 11.09038371 3 7 C1.13252737 5.60761953 1.13252737 5.60761953 -1 5 C-1.99 4.505 -1.99 4.505 -3 4 C-8.91132533 3.14150877 -13.13290698 3.93343338 -18.01171875 7.375 C-23.23919461 11.64735748 -27.76359218 15.49408633 -30 22 C-30.66 22 -31.32 22 -32 22 C-31.23282341 13.75285168 -25.68488435 9.40246621 -19.859375 4.0234375 C-13.88629164 -0.64441653 -7.40051431 -1.4762684 0 0 Z " fill="#110D0A" transform="translate(149,6)"/>
<path d="M0 0 C3.70724104 1.75251395 5.49204953 2.83847503 7.14453125 6.6171875 C8.169918 10.67191317 8.29388046 14.33866952 8.25 18.5 C8.26160156 19.60021484 8.26160156 19.60021484 8.2734375 20.72265625 C8.25742962 25.1968584 7.68015168 28.78628625 6 33 C1.96809504 34.04530869 -0.57498893 34.63840496 -4.44140625 32.90625 C-7.00639132 31.33273803 -9.49993261 29.67439229 -12 28 C-13.69821161 27.02384281 -15.40601789 26.06409854 -17.125 25.125 C-17.87007813 24.71507813 -18.61515625 24.30515625 -19.3828125 23.8828125 C-19.91648437 23.59148438 -20.45015625 23.30015625 -21 23 C-21 22.01 -21 21.02 -21 20 C-21.99 20.66 -22.98 21.32 -24 22 C-26.55859375 21.94140625 -26.55859375 21.94140625 -29.4375 21.5625 C-33.2346957 21.01544316 -33.2346957 21.01544316 -36.97265625 21.52734375 C-39.81864673 22.19085983 -42.14336009 21.53113405 -45 21 C-55.58479167 20.23127211 -65.65947207 22.01251634 -76 24 C-77.02738281 24.18949219 -78.05476563 24.37898438 -79.11328125 24.57421875 C-81.09329084 24.9689575 -83.05216678 25.46877276 -85 26 C-85.33 26.66 -85.66 27.32 -86 28 C-86.66 27.34 -87.32 26.68 -88 26 C-88.67869141 25.32517578 -88.67869141 25.32517578 -89.37109375 24.63671875 C-90.58179843 23.42020734 -91.78047748 22.19170352 -92.97265625 20.95703125 C-93.66230469 20.24933594 -94.35195312 19.54164062 -95.0625 18.8125 C-95.71347656 18.13832031 -96.36445312 17.46414062 -97.03515625 16.76953125 C-98.94596121 15.04866714 -100.6534468 14.01910439 -103 13 C-103 12.01 -103 11.02 -103 10 C-97.01133071 10.70454933 -92.92270583 13.71206337 -89.125 18.25 C-88.42375 19.1575 -87.7225 20.065 -87 21 C-85.824375 20.731875 -84.64875 20.46375 -83.4375 20.1875 C-42.72115385 11.13942308 -42.72115385 11.13942308 -27 19 C-26.76796875 18.11699219 -26.5359375 17.23398437 -26.296875 16.32421875 C-24.82623065 12.5545852 -23.13097068 10.62799408 -20.25 7.8125 C-19.40953125 6.97332031 -18.5690625 6.13414063 -17.703125 5.26953125 C-12.13985585 0.59863619 -7.13499204 -1.13598263 0 0 Z " fill="#201C18" transform="translate(146,9)"/>
<path d="M0 0 C2 2 2 2 2.0625 5.625 C1.20014483 11.07667064 -1.8630203 14.51907119 -6 18 C-11.07387404 21.09970826 -16.11589313 22.49922495 -22 23 C-21.94779297 24.44632813 -21.94779297 24.44632813 -21.89453125 25.921875 C-21.86746094 27.18515625 -21.84039062 28.4484375 -21.8125 29.75 C-21.76029297 31.62945312 -21.76029297 31.62945312 -21.70703125 33.546875 C-22.01349076 37.15901112 -22.3892736 38.54141383 -25 41 C-28 41.5 -28 41.5 -31 41 C-33.67798476 38.32201524 -34.90147064 35.62573439 -35.1328125 31.80859375 C-35.13023438 31.02613281 -35.12765625 30.24367188 -35.125 29.4375 C-35.12886719 28.25994141 -35.12886719 28.25994141 -35.1328125 27.05859375 C-35 25 -35 25 -34 23 C-35.5778125 23.1546875 -35.5778125 23.1546875 -37.1875 23.3125 C-41 23 -41 23 -43.875 20.8125 C-47.16846361 16.45350404 -47.16846361 16.45350404 -47 13 C-45.4512555 9.92927942 -44.83678264 8.77162924 -42 7 C-37.06033603 6.23462942 -32.16550349 6.43602959 -27.1875 6.625 C-25.81320906 6.65511878 -24.43885501 6.68249128 -23.06445312 6.70703125 C-19.70803031 6.77769278 -16.35481935 6.87632295 -13 7 C-12.90203125 6.38769531 -12.8040625 5.77539062 -12.703125 5.14453125 C-11.69800139 2.07890424 -9.60921767 1.13739837 -6.84765625 -0.30859375 C-4.2224738 -1.29095589 -2.57485843 -1.02994337 0 0 Z " fill="#1C1915" transform="translate(142,89)"/>
<path d="M0 0 C0 0.99 0 1.98 0 3 C-1.5778125 3.37125 -1.5778125 3.37125 -3.1875 3.75 C-8.68637824 5.38749292 -11.79956629 8.20973562 -14.8125 13.0625 C-18.79914442 21.56565929 -18.37725966 32.60327009 -16.08984375 41.56640625 C-15.41206523 43.39082084 -14.68205087 45.19772171 -13.875 46.96875 C-13 49 -13 49 -13 52 C-13.66 52 -14.32 52 -15 52 C-15 50.35 -15 48.7 -15 47 C-15.66 47 -16.32 47 -17 47 C-17.28101562 47.7321875 -17.56203125 48.464375 -17.8515625 49.21875 C-18.89708681 51.75076805 -20.07914326 54.08987154 -21.375 56.5 C-29.95636497 73.45962071 -32.07912833 93.84548995 -26.33691406 112.03833008 C-22.59686713 122.69898624 -15.51792496 135.65471669 -6 142 C-6 142.66 -6 143.32 -6 144 C-4.35 144.66 -2.7 145.32 -1 146 C-1 146.66 -1 147.32 -1 148 C-0.40574219 148.11988281 0.18851563 148.23976562 0.80078125 148.36328125 C3 149 3 149 6.1875 151.1875 C16.0524428 157.53056602 28.47118055 160.71161555 40 162 C40.33 162.99 40.66 163.98 41 165 C30.04827946 166.64374829 30.04827946 166.64374829 25.00390625 163.9453125 C22.27882182 162.65979509 19.46716433 161.98119703 16.5625 161.1875 C11.53130967 159.67699423 7.98168735 157.95510667 3.98828125 154.5859375 C0.86559316 152.09514896 -2.61569657 150.24542301 -6.09375 148.296875 C-6.7228125 147.86890625 -7.351875 147.4409375 -8 147 C-8 146.34 -8 145.68 -8 145 C-8.56203125 144.77570313 -9.1240625 144.55140625 -9.703125 144.3203125 C-21.49772143 137.54042544 -28.31189696 120.61714736 -32.5 108.375 C-37.14491751 90.35272006 -34.3788767 70.456021 -26 54 C-24.89902443 52.4616854 -23.77491029 50.939587 -22.625 49.4375 C-19.55782872 45.07147558 -19.76380927 42.17846496 -20.55078125 37.0234375 C-22.2776793 25.4006628 -20.75565196 16.76017353 -15.125 6.625 C-10.69346645 1.15075268 -7.02580633 -0.56206451 0 0 Z " fill="#0F0C09" transform="translate(41,18)"/>
<path d="M0 0 C0.33 0 0.66 0 1 0 C2.55577239 5.65735415 1.24281523 8.79666866 -1 14 C-1.66 14 -2.32 14 -3 14 C-3.10441406 14.86367187 -3.20882812 15.72734375 -3.31640625 16.6171875 C-4.04352201 20.21537178 -5.24026975 22.87992896 -6.9375 26.125 C-7.46214844 27.13820312 -7.98679688 28.15140625 -8.52734375 29.1953125 C-9.01332031 30.12085938 -9.49929687 31.04640625 -10 32 C-10.36609375 32.75152344 -10.7321875 33.50304687 -11.109375 34.27734375 C-12.15377421 36.2974317 -13.33050403 37.4541704 -15 39 C-17.58237753 41.51616272 -19.97181738 43.96376521 -22.1875 46.8125 C-22.785625 47.534375 -23.38375 48.25625 -24 49 C-24.66 49 -25.32 49 -26 49 C-26 49.66 -26 50.32 -26 51 C-26.99 51 -27.98 51 -29 51 C-29 51.66 -29 52.32 -29 53 C-29.763125 53.37125 -30.52625 53.7425 -31.3125 54.125 C-34.36232533 55.64271968 -37.3338163 57.28499991 -40.3125 58.9375 C-52.16332768 65.37262686 -63.54165238 68.84561159 -77.109375 69.7890625 C-79.08679344 69.89953015 -79.08679344 69.89953015 -81 71 C-80.67 71.66 -80.34 72.32 -80 73 C-85.28 73 -90.56 73 -96 73 C-96 72.67 -96 72.34 -96 72 C-93.69 72 -91.38 72 -89 72 C-89.33 71.34 -89.66 70.68 -90 70 C-92.17136533 69.50609721 -94.36456135 69.10753747 -96.5625 68.75 C-107.80556115 66.71697074 -119.03765366 63.29493307 -128 56 C-128.99 55.67 -129.98 55.34 -131 55 C-131 54.34 -131 53.68 -131 53 C-132.051875 52.7215625 -132.051875 52.7215625 -133.125 52.4375 C-137.09640051 50.45179974 -139.3073418 47.46066724 -142 44 C-138.05062638 44 -136.84445323 45.41386656 -133.75 47.8125 C-129.59021071 50.93372304 -125.88683305 53.26245936 -121 55 C-121 55.66 -121 56.32 -121 57 C-120.01 57.103125 -119.02 57.20625 -118 57.3125 C-115.2039717 57.70472842 -112.8036159 58.38252862 -110.1875 59.4375 C-92.52929576 66.31949975 -70.00486986 65.27728944 -52 60 C-49.90336809 58.65670412 -49.90336809 58.65670412 -48 57 C-46.70031687 56.30867919 -45.38600912 55.64453418 -44.0625 55 C-39.52693326 52.78279916 -35.51794621 50.67090039 -32 47 C-28.33333333 44 -28.33333333 44 -26 44 C-25.67 43.01 -25.34 42.02 -25 41 C-23.50390625 39.66796875 -23.50390625 39.66796875 -21.5625 38.1875 C-10.37590811 28.69096875 -2.06262838 14.46918419 0 0 Z " fill="#25211C" transform="translate(171,111)"/>
<path d="M0 0 C2.475 0.99 2.475 0.99 5 2 C5 2.66 5 3.32 5 4 C5.598125 4.24878906 6.19625 4.49757813 6.8125 4.75390625 C13.01025977 8.28441584 16.14363414 16.70142519 18.3125 23.171875 C20.20336111 30.95019004 19.06504691 38.38796578 17 46 C16.87753906 46.64453125 16.75507813 47.2890625 16.62890625 47.953125 C14.11661352 56.12977961 6.3434392 64.41266829 -0.8984375 68.7265625 C-12.38327556 74.71002134 -23.96495278 75.79488014 -36.44140625 71.9921875 C-40.25327479 70.51399726 -43.89650148 68.69444141 -47 66 C-47 65.34 -47 64.68 -47 64 C-47.5775 63.71125 -48.155 63.4225 -48.75 63.125 C-49.4925 62.75375 -50.235 62.3825 -51 62 C-51.65226562 61.73960938 -52.30453125 61.47921875 -52.9765625 61.2109375 C-57.5211513 58.49120289 -59.31452266 52.30953133 -60.76171875 47.43359375 C-63.68345254 34.19254489 -60.78152314 23.41803339 -56 11 C-55.34 11 -54.68 11 -54 11 C-53.34 9.68 -52.68 8.36 -52 7 C-51 10 -51 10 -52.1796875 12.77734375 C-52.73914063 13.82019531 -53.29859375 14.86304687 -53.875 15.9375 C-58.67430356 24.94456505 -59.16595619 33.64023897 -57.3125 43.75 C-51.85377057 57.26685383 -46.60649894 64.14900911 -33 70 C-24.09012469 72.96995844 -14.04095393 71.58770342 -5.72265625 67.61328125 C4.30111095 61.6738037 10.82469366 53.1657486 14 42 C14.41585822 39.02748289 14.4779756 36.12340711 14.4375 33.125 C14.42992676 32.33561035 14.42235352 31.5462207 14.41455078 30.73291016 C14.14925022 21.31958132 11.14685479 14.81105232 5.171875 7.59375 C4 6 4 6 4 4 C2.68 3.34 1.36 2.68 0 2 C0 1.34 0 0.68 0 0 Z " fill="#181512" transform="translate(142,62)"/>
<path d="M0 0 C2.4375 1.375 2.4375 1.375 4 3 C4 3.66 4 4.32 4 5 C4.66 5 5.32 5 6 5 C7.5078125 6.6796875 7.5078125 6.6796875 9.125 8.875 C9.66382812 9.59429687 10.20265625 10.31359375 10.7578125 11.0546875 C12 13 12 13 12 15 C10.68 14.67 9.36 14.34 8 14 C8.33 15.32 8.66 16.64 9 18 C8.01 18 7.02 18 6 18 C5.01 20.475 5.01 20.475 4 23 C3.01 23 2.02 23 1 23 C0.67 24.32 0.34 25.64 0 27 C-0.66 27 -1.32 27 -2 27 C-2.33 27.99 -2.66 28.98 -3 30 C-3.66 30 -4.32 30 -5 30 C-5.33 30.99 -5.66 31.98 -6 33 C-6.99 32.67 -7.98 32.34 -9 32 C-12.36056951 24.15867114 -14.14735867 11.91286913 -11.17578125 3.73046875 C-8.2265576 -0.610083 -4.81776639 -0.42261109 0 0 Z " fill="#CA816D" transform="translate(45,35)"/>
<path d="M0 0 C0.86625 0.00644531 1.7325 0.01289062 2.625 0.01953125 C5 0.1875 5 0.1875 8 1.1875 C8 2.8375 8 4.4875 8 6.1875 C8.99 6.1875 9.98 6.1875 11 6.1875 C12.8547958 9.89709161 12.29290756 13.92799748 11.375 17.875 C9.36617723 21.25347467 7.55073734 22.47553735 4 24.1875 C0.54575716 24.78439316 -2.55564761 24.87637048 -6 24.1875 C-9.0625 21.75 -9.0625 21.75 -11 19.1875 C-11.33 18.8575 -11.66 18.5275 -12 18.1875 C-12.85273785 11.67314203 -11.79413936 7.4992951 -8 2.1875 C-4.74004414 0.01419609 -3.77020034 -0.06171459 0 0 Z " fill="#966955" transform="translate(56,97.8125)"/>
<path d="M0 0 C-0.28127421 1.48117801 -0.57533732 2.95993249 -0.875 4.4375 C-1.11863281 5.67306641 -1.11863281 5.67306641 -1.3671875 6.93359375 C-1.57601562 7.61550781 -1.78484375 8.29742187 -2 9 C-2.99 9.495 -2.99 9.495 -4 10 C-3.67 7.36 -3.34 4.72 -3 2 C-3.99 4.64 -4.98 7.28 -6 10 C-6.66 9.67 -7.32 9.34 -8 9 C-7.34 7.35 -6.68 5.7 -6 4 C-7.96713413 6.95070119 -8.65358161 8.53581611 -9 12 C-8.01 13.485 -8.01 13.485 -7 15 C-6.69921875 17.77734375 -6.69921875 17.77734375 -6.6875 20.9375 C-6.67074219 21.97777344 -6.65398437 23.01804687 -6.63671875 24.08984375 C-7.04271316 27.34216456 -7.68702025 28.70868751 -10 31 C-13 31.5 -13 31.5 -16 31 C-18.67798476 28.32201524 -19.90147064 25.62573439 -20.1328125 21.80859375 C-20.13023438 21.02613281 -20.12765625 20.24367188 -20.125 19.4375 C-20.12886719 18.25994141 -20.12886719 18.25994141 -20.1328125 17.05859375 C-20 15 -20 15 -19 13 C-20.32 12.67 -21.64 12.34 -23 12 C-20.69754768 2.96730245 -20.69754768 2.96730245 -18 0 C-15.28553713 -0.44294582 -12.72710367 -0.24741868 -10 0 C-7.13505943 0.13537279 -7.13505943 0.13537279 -5 -0.5625 C-3 -1 -3 -1 0 0 Z " fill="#35251C" transform="translate(127,99)"/>
<path d="M0 0 C2.69990662 1.79993774 4.5418865 3.083773 6 6 C6.70101734 10.91713591 6.58782893 14.79168447 3.6875 18.9375 C1.87949184 21.23415902 0.51253956 22.32497363 -2 24 C-6.29386502 23.91898368 -8.69607742 23.18573047 -12.375 20.9375 C-15.15471381 17.82686788 -16.13083899 16.21323723 -16.37109375 12.12890625 C-15.64554676 7.96655773 -12.99236543 4.86460151 -10 2 C-6.53140998 -0.06240488 -4.04926559 -0.49582844 0 0 Z " fill="#C28471" transform="translate(178,68)"/>
<path d="M0 0 C3.1359157 1.77984405 3.84102736 2.52308207 5 6 C5.09504628 8.14413223 5.12987226 10.2912677 5.125 12.4375 C5.12886719 14.13712891 5.12886719 14.13712891 5.1328125 15.87109375 C5.02325193 18.45221183 4.75864877 20.54944405 4 23 C2 23.8125 2 23.8125 -1 24 C-3.07302854 22.99503182 -4.89340023 21.77730175 -6.796875 20.48046875 C-9.13498079 18.90929483 -11.53095467 17.54236922 -14 16.1875 C-14.763125 15.76855469 -15.52625 15.34960938 -16.3125 14.91796875 C-16.869375 14.61503906 -17.42625 14.31210937 -18 14 C-16.94679925 8.29516261 -12.96360769 4.52179596 -8.5 1.0625 C-5.40289906 -0.2537679 -3.33544233 -0.42580115 0 0 Z " fill="#C27C69" transform="translate(143,18)"/>
<path d="M0 0 C3.30342338 3.06170947 4.32476631 5.85756446 4.74975586 10.35791016 C4.83055119 12.53409846 4.83546114 14.69751826 4.8125 16.875 C4.82410156 17.97521484 4.82410156 17.97521484 4.8359375 19.09765625 C4.81992962 23.5718584 4.24265168 27.16128625 2.5625 31.375 C-0.0775 31.705 -2.7175 32.035 -5.4375 32.375 C-5.1075 31.715 -4.7775 31.055 -4.4375 30.375 C-3.7775 30.375 -3.1175 30.375 -2.4375 30.375 C-2.38345551 27.62473583 -2.34380694 24.87553797 -2.3125 22.125 C-2.29574219 21.34769531 -2.27898437 20.57039063 -2.26171875 19.76953125 C-2.15613692 14.27339302 -2.15613692 14.27339302 -4.4375 9.375 C-5.0975 8.715 -5.7575 8.055 -6.4375 7.375 C-6.1075 7.045 -5.7775 6.715 -5.4375 6.375 C-10.1958638 5.65975534 -13.92634002 5.39297022 -18.0703125 8.0859375 C-22.31639053 11.77788173 -22.31639053 11.77788173 -25.4375 16.375 C-26.4275 16.045 -27.4175 15.715 -28.4375 15.375 C-27.72966523 8.80722167 -23.20076167 5.51592597 -18.4375 1.375 C-12.54724416 -2.67455089 -6.40229841 -3.02654107 0 0 Z " fill="#4E473F" transform="translate(149.4375,10.625)"/>
<path d="M0 0 C0.515625 0.495 1.03125 0.99 1.5625 1.5 C1.375 4.3125 1.375 4.3125 0.5625 7.5 C-1.84553271 9.35233285 -3.36491925 10.5 -6.4375 10.5 C-6.2725 11.325 -6.1075 12.15 -5.9375 13 C-5.37853955 16.91272317 -5.36942813 20.55183173 -5.4375 24.5 C-2.4675 23.51 0.5025 22.52 3.5625 21.5 C3.5625 22.49 3.5625 23.48 3.5625 24.5 C0.81171116 25.41692961 -0.79698913 25.60886083 -3.625 25.5625 C-5.5121875 25.5315625 -5.5121875 25.5315625 -7.4375 25.5 C-8.39011487 20.73692563 -8.52083357 16.3333472 -8.4375 11.5 C-9.675 11.561875 -10.9125 11.62375 -12.1875 11.6875 C-15.21961302 11.70362826 -16.25998296 11.60651023 -18.9375 10 C-19.4325 9.505 -19.9275 9.01 -20.4375 8.5 C-20.18456737 5.08540955 -19.17801411 4.25204681 -16.625 1.8125 C-11.68489678 -1.77149645 -5.58178509 -3.43494467 0 0 Z " fill="#41352B" transform="translate(125.4375,71.5)"/>
<path d="M0 0 C2.1875 -0.3125 2.1875 -0.3125 5 0 C7.8125 2.375 7.8125 2.375 10 5 C10 5.66 10 6.32 10 7 C12.475 7.99 12.475 7.99 15 9 C15 9.66 15 10.32 15 11 C15.89138672 11.17982422 15.89138672 11.17982422 16.80078125 11.36328125 C19 12 19 12 22.1875 14.1875 C32.0524428 20.53056602 44.47118055 23.71161555 56 25 C56.495 26.485 56.495 26.485 57 28 C46.04827946 29.64374829 46.04827946 29.64374829 41.00390625 26.9453125 C38.27882182 25.65979509 35.46716433 24.98119703 32.5625 24.1875 C27.53130967 22.67699423 23.98168735 20.95510667 19.98828125 17.5859375 C16.86559316 15.09514896 13.38430343 13.24542301 9.90625 11.296875 C9.2771875 10.86890625 8.648125 10.4409375 8 10 C8 9.34 8 8.68 8 8 C7.4225 7.773125 6.845 7.54625 6.25 7.3125 C3.41941846 5.66132744 1.89809894 3.64378067 0 1 C0 0.67 0 0.34 0 0 Z " fill="#171410" transform="translate(25,155)"/>
<path d="M0 0 C0.495 0.99 0.495 0.99 1 2 C0.35933594 2.07476563 -0.28132813 2.14953125 -0.94140625 2.2265625 C-7.4963755 3.22299598 -11.55226003 5.0341994 -16 10 C-16.66 10.99 -17.32 11.98 -18 13 C-21.29262571 15.2456285 -23.62578501 15.07870722 -27.5 14.5625 C-31.0562114 14.09843395 -33.55906017 14.06024753 -37 15 C-39.00946222 14.72949547 -41.01354224 14.40632091 -43 14 C-42.34 13.34 -41.68 12.68 -41 12 C-47.93 11.505 -47.93 11.505 -55 11 C-54.34 10.01 -53.68 9.02 -53 8 C-44.77579681 7.1342944 -32.47644706 8.26177647 -25 12 C-24.67 10.35 -24.34 8.7 -24 7 C-22.68 8.32 -21.36 9.64 -20 11 C-19.7421875 10.41734375 -19.484375 9.8346875 -19.21875 9.234375 C-14.83210067 1.19218456 -8.7745824 -1.1327842 0 0 Z " fill="#2E2924" transform="translate(144,16)"/>
<path d="M0 0 C1.21236328 0.02707031 1.21236328 0.02707031 2.44921875 0.0546875 C3.37154297 0.08949219 3.37154297 0.08949219 4.3125 0.125 C0.5625 2.125 0.5625 2.125 -1.6875 2.125 C-2.0175 2.785 -2.3475 3.445 -2.6875 4.125 C-3.491875 4.3725 -4.29625 4.62 -5.125 4.875 C-8.01121184 5.93455402 -8.01121184 5.93455402 -9 9.25 C-9.3403125 10.673125 -9.3403125 10.673125 -9.6875 12.125 C-9.06875 11.939375 -8.45 11.75375 -7.8125 11.5625 C-5.6875 11.125 -5.6875 11.125 -3.6875 12.125 C-3.0275 10.475 -2.3675 8.825 -1.6875 7.125 C-0.6975 7.125 0.2925 7.125 1.3125 7.125 C1.3125 6.465 1.3125 5.805 1.3125 5.125 C2.6325 5.785 3.9525 6.445 5.3125 7.125 C4.4875 7.475625 3.6625 7.82625 2.8125 8.1875 C1.9875 8.826875 1.1625 9.46625 0.3125 10.125 C0.0621423 13.49964024 0.0621423 13.49964024 0.3125 17.125 C-0.6875 20.5625 -0.6875 20.5625 -1.6875 23.125 C-4.4375 23.4375 -4.4375 23.4375 -7.6875 23.125 C-10.29008564 21.00183803 -11.4599725 19.36711441 -12.0703125 16.03515625 C-12.36594632 10.2702968 -11.01981209 6.79023692 -7.6875 2.125 C-4.48369983 -0.01086678 -3.66810033 -0.10632175 0 0 Z " fill="#9F6B56" transform="translate(55.6875,97.875)"/>
<path d="M0 0 C3.67418886 2.3711038 4.80252234 3.45458551 6.3125 7.625 C7.27467239 12.39090064 7.17850955 17.16040786 7 22 C6.34 21.67 5.68 21.34 5 21 C4.42926493 17.41705209 4.10313465 13.8338443 3.7578125 10.22265625 C3.35917272 6.93221998 3.35917272 6.93221998 1.0546875 5.62109375 C0.37664062 5.41613281 -0.30140625 5.21117187 -1 5 C-1.66 4.67 -2.32 4.34 -3 4 C-8.91132533 3.14150877 -13.13290698 3.93343338 -18.01171875 7.375 C-23.23919461 11.64735748 -27.76359218 15.49408633 -30 22 C-30.66 22 -31.32 22 -32 22 C-31.23282341 13.75285168 -25.68488435 9.40246621 -19.859375 4.0234375 C-13.88629164 -0.64441653 -7.40051431 -1.4762684 0 0 Z " fill="#100D0A" transform="translate(149,6)"/>
<path d="M0 0 C0.33 0.66 0.66 1.32 1 2 C1.99 1.67 2.98 1.34 4 1 C3.67 2.134375 3.34 3.26875 3 4.4375 C1.95495727 7.54376639 1.95495727 7.54376639 2 9 C2.66 9.33 3.32 9.66 4 10 C2.69791667 11.49739583 1.39583333 12.99479167 0.09375 14.4921875 C-1.19572458 15.95936421 -1.19572458 15.95936421 -1 18 C0.32 18.33 1.64 18.66 3 19 C3 19.66 3 20.32 3 21 C3.66 21.33 4.32 21.66 5 22 C-0.86892562 21.64786446 -4.04629841 20.42438035 -8 16 C-9.14372981 13.23066437 -9.43727256 10.96560495 -9 8 C-7.74433059 5.2512447 -6.26575965 3.00947836 -4 1 C-1.82421875 0.30859375 -1.82421875 0.30859375 0 0 Z " fill="#B9806B" transform="translate(171,70)"/>
<path d="M0 0 C0.78826172 0.07476562 1.57652344 0.14953125 2.38867188 0.2265625 C4.32458149 0.41428707 6.25665803 0.64082953 8.1875 0.875 C8.1875 1.205 8.1875 1.535 8.1875 1.875 C4.5575 2.205 0.9275 2.535 -2.8125 2.875 C-2.4825 4.525 -2.1525 6.175 -1.8125 7.875 C-2.75 11.1875 -2.75 11.1875 -3.8125 13.875 C-3.1525 14.205 -2.4925 14.535 -1.8125 14.875 C-4.5 15.6875 -4.5 15.6875 -7.8125 15.875 C-10.75927019 13.64855141 -12.39134302 11.78750678 -13.9375 8.4375 C-13.78100217 5.22929444 -12.5533146 3.51110859 -10.47460938 1.1159668 C-7.2753131 -1.27269698 -3.77148103 -0.48052399 0 0 Z " fill="#23201C" transform="translate(108.8125,96.125)"/>
<path d="M0 0 C1.37562854 1.28965176 2.70766393 2.62689293 4 4 C4 4.66 4 5.32 4 6 C2.68 5.67 1.36 5.34 0 5 C0.33 6.32 0.66 7.64 1 9 C0.01 9 -0.98 9 -2 9 C-2.66 10.65 -3.32 12.3 -4 14 C-4.99 14 -5.98 14 -7 14 C-7.33 15.32 -7.66 16.64 -8 18 C-8.66 18 -9.32 18 -10 18 C-10.33 18.99 -10.66 19.98 -11 21 C-11.66 21 -12.32 21 -13 21 C-13.33 21.99 -13.66 22.98 -14 24 C-14.99 23.67 -15.98 23.34 -17 23 C-17.33 21.02 -17.66 19.04 -18 17 C-17.01 16.67 -16.02 16.34 -15 16 C-14.67 15.01 -14.34 14.02 -14 13 C-12.58203125 11.5703125 -12.58203125 11.5703125 -10.8125 10.125 C-10.18730469 9.60679688 -9.56210937 9.08859375 -8.91796875 8.5546875 C-8.28503906 8.04164062 -7.65210938 7.52859375 -7 7 C-2.95235169 3.97265889 -2.95235169 3.97265889 0 0 Z " fill="#A46850" transform="translate(53,44)"/>
<path d="M0 0 C1 3 1 3 -0.1796875 5.77734375 C-0.73914063 6.82019531 -1.29859375 7.86304687 -1.875 8.9375 C-6.65475218 17.90787211 -7.26178825 26.69105874 -5.25 36.75 C-3.54400981 41.18557449 -1.81972895 45.60968307 0 50 C-0.66 50 -1.32 50 -2 50 C-1.67 50.99 -1.34 51.98 -1 53 C-1.66 53 -2.32 53 -3 53 C-9.37815616 41.55826949 -11.85497163 30.2902824 -8.7109375 17.41796875 C-7.37162485 12.86283395 -5.70533502 8.42890405 -4 4 C-3.34 4 -2.68 4 -2 4 C-1.34 2.68 -0.68 1.36 0 0 Z " fill="#1E1A17" transform="translate(90,69)"/>
<path d="M0 0 C3 1 3 1 4 3 C4.12244289 5.16410684 4.17551142 7.33246523 4.1875 9.5 C4.20167969 10.6653125 4.21585938 11.830625 4.23046875 13.03125 C4 16 4 16 2 18 C-0.625 17.625 -0.625 17.625 -3 17 C-5.27141454 11.60539047 -5.20413361 6.73842251 -5 1 C-4.01 1 -3.02 1 -2 1 C-1.67 3.31 -1.34 5.62 -1 8 C-0.67 5.36 -0.34 2.72 0 0 Z " fill="#C24627" transform="translate(114,110)"/>
<path d="M0 0 C0 0.33 0 0.66 0 1 C-0.99580078 1.12955078 -0.99580078 1.12955078 -2.01171875 1.26171875 C-7.83490224 2.18832751 -11.28011665 3.08015428 -15 8 C-16.36037028 12.08111083 -16.62708766 15.73729696 -16 20 C-14.31366812 23.26977606 -14.31366812 23.26977606 -11 25 C-5.91246116 25.94809376 -2.15073188 25.60674954 2.4375 23.1875 C5.33680427 20.71396441 5.33680427 20.71396441 8 18 C7.73752081 21.14975024 7.18575827 22.76940353 5.1875 25.25 C0.39656869 27.88031523 -4.57604432 28.21638121 -10 28 C-14.47499489 26.565953 -16.72179161 25.21890443 -19 21 C-19.78252418 15.36424502 -19.76587617 10.6168497 -17.3125 5.4375 C-11.87283055 -0.29620563 -7.59786165 -0.39833449 0 0 Z " fill="#1A1713" transform="translate(61,96)"/>
<path d="M0 0 C0.66 0.33 1.32 0.66 2 1 C1.69461464 3.85026332 0.95551924 5.05165508 -0.9375 7.25 C-5.27791135 9.73023506 -9.11230586 9.34166406 -14 9 C-14.33 7.68 -14.66 6.36 -15 5 C-9.83939187 0.67624724 -6.74792033 -0.24537892 0 0 Z " fill="#D77548" transform="translate(123,72)"/>
<path d="M0 0 C7.71277145 2.24272078 14.32589828 5.55059885 21 10 C21 10.99 21 11.98 21 13 C19 13.8125 19 13.8125 16 14 C13.92697146 12.99503182 12.10659977 11.77730175 10.203125 10.48046875 C7.86501921 8.90929483 5.46904533 7.54236922 3 6.1875 C2.236875 5.76855469 1.47375 5.34960938 0.6875 4.91796875 C0.130625 4.61503906 -0.42625 4.31210937 -1 4 C-0.67 2.68 -0.34 1.36 0 0 Z " fill="#9C644F" transform="translate(126,28)"/>
<path d="M0 0 C2.1875 0.875 2.1875 0.875 4.1875 2.875 C4.03822098 7.42801017 3.73562334 9.96776137 1.375 13.875 C-0.8125 15.875 -0.8125 15.875 -4.8125 15.875 C-4.8125 13.235 -4.8125 10.595 -4.8125 7.875 C-3.4925 7.875 -2.1725 7.875 -0.8125 7.875 C-1.1425 6.555 -1.4725 5.235 -1.8125 3.875 C-2.9571875 4.3390625 -2.9571875 4.3390625 -4.125 4.8125 C-6.00039677 5.55393593 -7.89934652 6.23728217 -9.8125 6.875 C-9.8125 5.885 -9.8125 4.895 -9.8125 3.875 C-3.57809546 -0.15902647 -3.57809546 -0.15902647 0 0 Z " fill="#14110E" transform="translate(139.8125,88.125)"/>
<path d="M0 0 C0.66 0 1.32 0 2 0 C6.24561432 9.28278385 5.44739565 18.53739549 2 28 C1.34 28 0.68 28 0 28 C-0.99 29.98 -1.98 31.96 -3 34 C-4.32 33.67 -5.64 33.34 -7 33 C-7 32.01 -7 31.02 -7 30 C-5.35 29.67 -3.7 29.34 -2 29 C-1.34 24.05 -0.68 19.1 0 14 C0.33 14 0.66 14 1 14 C1.14975239 6.94348748 1.14975239 6.94348748 0 0 Z " fill="#211C19" transform="translate(154,13)"/>
<path d="M0 0 C3.68113715 -0.07512525 7.10245528 0.01536829 10.75 0.5625 C14.00382962 1.24314938 14.00382962 1.24314938 17 0 C17 0.99 17 1.98 17 3 C17.53753906 3.09410156 18.07507813 3.18820313 18.62890625 3.28515625 C21.72358011 4.21814689 24.17596972 5.76247344 26.9375 7.4375 C30.55859415 9.63029911 34.021292 11.54187313 38 13 C38 13.99 38 14.98 38 16 C32.61407639 13.97432077 27.46157273 11.75908034 22.375 9.0625 C15.21933614 5.39125209 7.70194344 3.20893302 0 1 C0 0.67 0 0.34 0 0 Z " fill="#1C1814" transform="translate(108,29)"/>
<path d="M0 0 C7.10768194 0.83619787 11.40746252 5.14602736 15.8984375 10.31640625 C17 12 17 12 17 15 C17.66 15.33 18.32 15.66 19 16 C18.34 16.66 17.68 17.32 17 18 C16.34 17.34 15.68 16.68 15 16 C14.32130859 15.32517578 14.32130859 15.32517578 13.62890625 14.63671875 C12.41820157 13.42020734 11.21952252 12.19170352 10.02734375 10.95703125 C9.33769531 10.24933594 8.64804687 9.54164062 7.9375 8.8125 C7.28652344 8.13832031 6.63554688 7.46414062 5.96484375 6.76953125 C4.05403879 5.04866714 2.3465532 4.01910439 0 3 C0 2.01 0 1.02 0 0 Z " fill="#110E0B" transform="translate(43,19)"/>
<path d="M0 0 C0.65871094 0.268125 1.31742188 0.53625 1.99609375 0.8125 C12.48567272 4.95922563 22.7143637 8.73879209 34 10 C34.495 11.485 34.495 11.485 35 13 C28.59402996 13.34941655 23.95864243 12.25488079 18 10 C17.08605469 9.68675781 16.17210938 9.37351563 15.23046875 9.05078125 C9.77283229 7.16188655 4.90475928 5.05185022 0 2 C0 1.34 0 0.68 0 0 Z " fill="#0C0A08" transform="translate(47,170)"/>
<path d="M0 0 C0.99 0.33 1.98 0.66 3 1 C3 2.32 3 3.64 3 5 C2.01 5 1.02 5 0 5 C0 4.34 0 3.68 0 3 C-0.66 3 -1.32 3 -2 3 C-2.33 4.32 -2.66 5.64 -3 7 C-4.32 6.67 -5.64 6.34 -7 6 C-7.33 6.66 -7.66 7.32 -8 8 C-10.02543556 8.25719817 -12.05350224 8.50842122 -14.08984375 8.65625 C-16.23522156 8.85476212 -16.23522156 8.85476212 -18 11 C-18.33 10.34 -18.66 9.68 -19 9 C-20.89533342 8.53476937 -20.89533342 8.53476937 -23.0625 8.375 C-24.361875 8.25125 -25.66125 8.1275 -27 8 C-27.33 9.32 -27.66 10.64 -28 12 C-28.66 10.68 -29.32 9.36 -30 8 C-27.63980407 6.81990204 -25.83904283 6.70232315 -23.2109375 6.46484375 C-22.26992187 6.37783203 -21.32890625 6.29082031 -20.359375 6.20117188 C-19.37453125 6.11416016 -18.3896875 6.02714844 -17.375 5.9375 C-16.38242188 5.84662109 -15.38984375 5.75574219 -14.3671875 5.66210938 C-11.91176132 5.43781564 -9.45605611 5.21726893 -7 5 C-6.67 4.01 -6.34 3.02 -6 2 C-5.01 2 -4.02 2 -3 2 C-2.01 1.34 -1.02 0.68 0 0 Z " fill="#0D0B09" transform="translate(136,91)"/>
<path d="M0 0 C2.40300413 1.83721745 2.9608987 2.72744092 3.3984375 5.77734375 C3.39070313 6.82019531 3.38296875 7.86304687 3.375 8.9375 C3.38273437 9.97777344 3.39046875 11.01804687 3.3984375 12.08984375 C2.95565409 15.32389903 2.30154918 16.71465892 0 19 C-3 19.5 -3 19.5 -6 19 C-9.38394217 15.61605783 -10.14908084 12.10158555 -10.1875 7.4375 C-10.20167969 6.65246094 -10.21585937 5.86742188 -10.23046875 5.05859375 C-10 3 -10 3 -8 1 C-7.34 5.62 -6.68 10.24 -6 15 C-4.35 15.33 -2.7 15.66 -1 16 C0.39156484 14.83722968 0.39156484 14.83722968 0.09765625 11.62109375 C0.09098369 10.22652923 0.07902532 8.83198257 0.0625 7.4375 C0.05798828 6.72658203 0.05347656 6.01566406 0.04882812 5.28320312 C0.03700864 3.52209987 0.01907263 1.76103964 0 0 Z " fill="#39281C" transform="translate(117,111)"/>
<path d="M0 0 C0.515625 0.495 1.03125 0.99 1.5625 1.5 C1.2325 3.48 0.9025 5.46 0.5625 7.5 C-0.4275 7.83 -1.4175 8.16 -2.4375 8.5 C-1.86165568 6.11435923 -1.21522405 3.83317216 -0.4375 1.5 C-6.14309087 1.15766455 -10.56159464 1.08686625 -15.4375 4.5 C-16.57837999 6.47104162 -16.57837999 6.47104162 -16.4375 8.5 C-15.7775 9.16 -15.1175 9.82 -14.4375 10.5 C-16.0875 10.17 -17.7375 9.84 -19.4375 9.5 C-19.7675 8.18 -20.0975 6.86 -20.4375 5.5 C-19.36206217 4.51216806 -18.27676783 3.53506057 -17.1875 2.5625 C-16.58421875 2.01722656 -15.9809375 1.47195312 -15.359375 0.91015625 C-10.99505062 -2.29212241 -4.62746342 -2.8476698 0 0 Z " fill="#271F19" transform="translate(125.4375,71.5)"/>
<path d="M0 0 C2.3125 1.0625 2.3125 1.0625 4 2 C4 2.66 4 3.32 4 4 C4.66 4 5.32 4 6 4 C6 4.99 6 5.98 6 7 C4 6 2 5 0 4 C-3.67329964 3.86642547 -6.49852959 3.8328432 -10 5 C-11.03316488 7.79172239 -11.03316488 7.79172239 -11.6875 11.0625 C-11.93886719 12.16722656 -12.19023438 13.27195312 -12.44921875 14.41015625 C-12.63097656 15.26480469 -12.81273437 16.11945312 -13 17 C-13.33 17 -13.66 17 -14 17 C-14.61896333 12.75568003 -14.87225866 9.37363569 -12.51171875 5.65625 C-6.15254237 -1.61138015 -6.15254237 -1.61138015 0 0 Z " fill="#261F18" transform="translate(45,32)"/>
<path d="M0 0 C0.99 0.66 1.98 1.32 3 2 C2.505 2.474375 2.01 2.94875 1.5 3.4375 C-0.11542197 4.75923698 -0.11542197 4.75923698 0 6 C1.32 5.67 2.64 5.34 4 5 C4 8.86695678 2.58090029 11.5088452 1 15 C0.01 14.67 -0.98 14.34 -2 14 C-2.33 13.34 -2.66 12.68 -3 12 C-3.33 12.66 -3.66 13.32 -4 14 C-4.66 13.67 -5.32 13.34 -6 13 C-5.18796242 11.20812371 -4.37535532 9.41650549 -3.5625 7.625 C-3.11003906 6.62726563 -2.65757813 5.62953125 -2.19140625 4.6015625 C-1.48402684 3.05692417 -0.75977539 1.51955078 0 0 Z " fill="#B37561" transform="translate(61,106)"/>
<path d="M0 0 C1.32 0.66 2.64 1.32 4 2 C4.04241723 4.33294775 4.04092937 6.66702567 4 9 C3 10 3 10 0.4375 10.0625 C-0.366875 10.041875 -1.17125 10.02125 -2 10 C-3.39431504 7.21136993 -3.25660094 5.07921132 -3 2 C-2.01 1.34 -1.02 0.68 0 0 Z " fill="#0E0C0A" transform="translate(63,75)"/>
<path d="M0 0 C0.33 0.66 0.66 1.32 1 2 C0.35933594 2.07476563 -0.28132813 2.14953125 -0.94140625 2.2265625 C-7.47028638 3.21903012 -11.57842401 5.02403681 -16 10 C-16.33 10.66 -16.66 11.32 -17 12 C-17.66 12 -18.32 12 -19 12 C-18.3413282 6.77574011 -16.34686729 4.68364826 -12.41015625 1.3828125 C-8.37715773 -0.93109589 -4.49896318 -0.58080877 0 0 Z " fill="#191410" transform="translate(144,16)"/>
<path d="M0 0 C0.33 0 0.66 0 1 0 C2.56686324 7.44583773 3.19241727 14.36348175 2.75 21.9375 C2.71140869 22.64640381 2.67281738 23.35530762 2.63305664 24.08569336 C2.32740534 28.33419628 1.51804319 32.02446887 0 36 C-2 34 -2 34 -2.01171875 31.94140625 C-1.90472656 31.15636719 -1.79773438 30.37132813 -1.6875 29.5625 C-1.58824219 28.78003906 -1.48898438 27.99757813 -1.38671875 27.19140625 C-1 25 -1 25 0 22 C0.09398229 20.18945873 0.12991987 18.37547219 0.125 16.5625 C0.12757813 15.61503906 0.13015625 14.66757813 0.1328125 13.69140625 C0.09234352 11.0724809 0.09234352 11.0724809 -0.53515625 8.88671875 C-1.28313147 5.85081933 -0.52595092 3.03882751 0 0 Z " fill="#302C27" transform="translate(160,77)"/>
<path d="M0 0 C2.475 0.495 2.475 0.495 5 1 C7.27141454 6.39460953 7.20413361 11.26157749 7 17 C4.48757583 13.96205445 3.11771466 11.08561027 1.8125 7.375 C1.46832031 6.41335937 1.12414062 5.45171875 0.76953125 4.4609375 C0 2 0 2 0 0 Z " fill="#19150A" transform="translate(9,125)"/>
<path d="M0 0 C1.32 0 2.64 0 4 0 C4 0.66 4 1.32 4 2 C4.66 2.33 5.32 2.66 6 3 C5.50769231 10.50769231 5.50769231 10.50769231 2.9375 13 C1.9784375 13.495 1.9784375 13.495 1 14 C1.875 8.25 1.875 8.25 3 6 C-0.00259517 5.66781808 -0.00259517 5.66781808 -1.6875 7.5 C-2.120625 7.995 -2.55375 8.49 -3 9 C-2 6 -1 3 0 0 Z " fill="#976753" transform="translate(62,106)"/>
<path d="M0 0 C1 3 1 3 1 5 C1.185625 5.66 1.37125 6.32 1.5625 7 C2 9 2 9 1 11 C-2.4375 11.75 -2.4375 11.75 -6 12 C-6.66 11.34 -7.32 10.68 -8 10 C-7.34 10 -6.68 10 -6 10 C-5.67 7.69 -5.34 5.38 -5 3 C-4.01 3 -3.02 3 -2 3 C-2.66 4.65 -3.32 6.3 -4 8 C-3.67 8.33 -3.34 8.66 -3 9 C-2.814375 7.88625 -2.814375 7.88625 -2.625 6.75 C-2.04513299 4.19858515 -1.26291261 2.2732427 0 0 Z " fill="#0D0B09" transform="translate(124,100)"/>
<path d="M0 0 C0 0.33 0 0.66 0 1 C-0.99580078 1.12955078 -0.99580078 1.12955078 -2.01171875 1.26171875 C-6.22707384 1.93248328 -9.38203938 2.60090043 -13 4.9375 C-15.87878126 9.3456338 -16.39374554 13.83326422 -17 19 C-17.33 19 -17.66 19 -18 19 C-19.59090909 10.25 -19.59090909 10.25 -17.375 5.5625 C-11.94624988 -0.29483566 -7.66619966 -0.40191726 0 0 Z " fill="#211C18" transform="translate(61,96)"/>
<path d="M0 0 C2.1875 0.875 2.1875 0.875 4.1875 2.875 C4.3125 5.5 4.3125 5.5 4.1875 7.875 C3.8575 7.215 3.5275 6.555 3.1875 5.875 C1.8675 5.875 0.5475 5.875 -0.8125 5.875 C-1.1425 5.215 -1.4725 4.555 -1.8125 3.875 C-2.9571875 4.3390625 -2.9571875 4.3390625 -4.125 4.8125 C-6.00039677 5.55393593 -7.89934652 6.23728217 -9.8125 6.875 C-9.8125 5.885 -9.8125 4.895 -9.8125 3.875 C-3.57809546 -0.15902647 -3.57809546 -0.15902647 0 0 Z " fill="#25221D" transform="translate(139.8125,88.125)"/>
<path d="M0 0 C3.58779061 0.63238036 6.84348871 1.59008785 10.25 2.875 C15.1344193 4.69091708 20.04578877 6.38529412 25 8 C25 8.66 25 9.32 25 10 C18.27282465 8.69796606 12.29789655 6.66930715 6 4 C5.09765625 3.67 4.1953125 3.34 3.265625 3 C1 2 1 2 0 0 Z " fill="#39211A" transform="translate(49,174)"/>
<path d="M0 0 C1.32 0 2.64 0 4 0 C2.70886391 5.75142442 0.6791863 9.37743259 -3 14 C-3.33 14 -3.66 14 -4 14 C-4.56561146 8.34388537 -2.71391278 4.77357872 0 0 Z " fill="#1A0E0A" transform="translate(166,131)"/>
<path d="M0 0 C0 0.33 0 0.66 0 1 C1.65 1.33 3.3 1.66 5 2 C5 2.33 5 2.66 5 3 C2.87707704 3.52923572 0.75157949 4.04815377 -1.375 4.5625 C-2.55835937 4.85253906 -3.74171875 5.14257812 -4.9609375 5.44140625 C-8 6 -8 6 -10 5 C-10 4.01 -10 3.02 -10 2 C-8.71211992 1.46987262 -7.41953322 0.9511671 -6.125 0.4375 C-5.40570313 0.14746094 -4.68640625 -0.14257812 -3.9453125 -0.44140625 C-2 -1 -2 -1 0 0 Z " fill="#221E1A" transform="translate(70,29)"/>
<path d="M0 0 C1.4589426 0.47730838 2.91713496 0.95691042 4.375 1.4375 C5.18710938 1.70433594 5.99921875 1.97117187 6.8359375 2.24609375 C9 3 9 3 11 4 C10.67 4.99 10.34 5.98 10 7 C5.94393835 6.53199289 2.53411321 6.12046792 -1 4 C-0.67 2.68 -0.34 1.36 0 0 Z " fill="#A86952" transform="translate(126,28)"/>
<path d="M0 0 C1.23556641 0.01740234 1.23556641 0.01740234 2.49609375 0.03515625 C3.32238281 0.04417969 4.14867187 0.05320312 5 0.0625 C5.63808594 0.07410156 6.27617188 0.08570312 6.93359375 0.09765625 C3.18359375 2.09765625 3.18359375 2.09765625 0.93359375 2.09765625 C0.60359375 2.75765625 0.27359375 3.41765625 -0.06640625 4.09765625 C-1.71003759 4.81925049 -3.37691011 5.49117046 -5.06640625 6.09765625 C-5.39640625 8.40765625 -5.72640625 10.71765625 -6.06640625 13.09765625 C-7.05640625 13.09765625 -8.04640625 13.09765625 -9.06640625 13.09765625 C-8.80767523 8.69922891 -8.50533736 6.60242703 -5.56640625 3.22265625 C-4.32890625 2.17078125 -4.32890625 2.17078125 -3.06640625 1.09765625 C-2.06640625 0.09765625 -2.06640625 0.09765625 0 0 Z " fill="#A38A73" transform="translate(53.06640625,97.90234375)"/>
<path d="M0 0 C-0.86882812 0.49628906 -1.73765625 0.99257813 -2.6328125 1.50390625 C-9.115029 5.29434693 -14.50852171 8.84025835 -19 15 C-19.33 14.34 -19.66 13.68 -20 13 C-7.27927193 -2.10357339 -7.27927193 -2.10357339 0 0 Z " fill="#C9BFAD" transform="translate(109,61)"/>
<path d="M0 0 C2.0625 0.4375 2.0625 0.4375 4 1 C4.33 2.98 4.66 4.96 5 7 C3.02 7.99 3.02 7.99 1 9 C-1 7 -1 7 -1.1875 3.9375 C-1 1 -1 1 0 0 Z " fill="#0C0A09" transform="translate(148,54)"/>
<path d="M0 0 C0.33 1.32 0.66 2.64 1 4 C1.66 4 2.32 4 3 4 C3.33 3.34 3.66 2.68 4 2 C5.32 5.3 6.64 8.6 8 12 C7.34 12 6.68 12 6 12 C6.33 12.99 6.66 13.98 7 15 C6.34 15 5.68 15 5 15 C4.15415002 13.44424022 3.32381601 11.8800388 2.5 10.3125 C2.0359375 9.44238281 1.571875 8.57226562 1.09375 7.67578125 C-0.04818792 4.88211171 -0.21504208 2.98370887 0 0 Z " fill="#2B2723" transform="translate(82,107)"/>
<path d="M0 0 C0.66 0.33 1.32 0.66 2 1 C1.34 3.97 0.68 6.94 0 10 C0.66 10.33 1.32 10.66 2 11 C-0.8125 11.6875 -0.8125 11.6875 -4 12 C-5.875 10.5625 -5.875 10.5625 -7 9 C-6.67 8.34 -6.34 7.68 -6 7 C-5.34 7.33 -4.68 7.66 -4 8 C-4 8.66 -4 9.32 -4 10 C-3.34 10 -2.68 10 -2 10 C-2.226875 9.278125 -2.45375 8.55625 -2.6875 7.8125 C-3.08398299 4.24415308 -2.04377787 2.86128901 0 0 Z " fill="#1E1B17" transform="translate(105,100)"/>
<path d="M0 0 C1 3 1 3 1.25 6.9375 C1.63280951 10.35140777 1.85512223 10.85512223 4.4375 13.4375 C6.87078339 14.9703151 6.87078339 14.9703151 9 16 C9 16.66 9 17.32 9 18 C2.66346863 16.68487085 2.66346863 16.68487085 0.0625 14 C-1.46054769 9.69963006 -1.43546749 5.52216241 -1 1 C-0.67 0.67 -0.34 0.34 0 0 Z " fill="#171310" transform="translate(162,75)"/>
<path d="M0 0 C1.8871875 0.061875 1.8871875 0.061875 3.8125 0.125 C3.8125 0.455 3.8125 0.785 3.8125 1.125 C1.95625 1.5271875 1.95625 1.5271875 0.0625 1.9375 C-3.27976482 2.78341835 -5.73933294 3.57890626 -8.1875 6.125 C-8.98373822 8.21915804 -8.98373822 8.21915804 -9.1875 10.125 C-9.8475 10.125 -10.5075 10.125 -11.1875 10.125 C-12.1775 13.59 -12.1775 13.59 -13.1875 17.125 C-13.5175 17.125 -13.8475 17.125 -14.1875 17.125 C-13.91890413 10.67869901 -11.54178394 6.83672515 -7.1875 2.125 C-4.09861478 0.06574319 -3.47814073 -0.1140374 0 0 Z " fill="#B4AB99" transform="translate(38.1875,21.875)"/>
<path d="M0 0 C0.99 0.33 1.98 0.66 3 1 C2.67 1.33 2.34 1.66 2 2 C1.95936168 3.66617115 1.957279 5.33388095 2 7 C3.32 7.33 4.64 7.66 6 8 C6 8.66 6 9.32 6 10 C6.66 10.33 7.32 10.66 8 11 C3.5428126 10.73781251 1.48477302 10.42288711 -1.9375 7.4375 C-2.618125 6.633125 -3.29875 5.82875 -4 5 C-2.68 5 -1.36 5 0 5 C0 3.35 0 1.7 0 0 Z " fill="#8C604D" transform="translate(168,81)"/>
<path d="M0 0 C2.13686999 4.27373998 3.11896237 6.76923622 3.0625 11.625 C3.05347656 12.62789062 3.04445312 13.63078125 3.03515625 14.6640625 C3.02355469 15.43492188 3.01195312 16.20578125 3 17 C2.67 17 2.34 17 2 17 C2 13.7 2 10.4 2 7 C1.34 7 0.68 7 0 7 C0 10.96 0 14.92 0 19 C-0.33 19 -0.66 19 -1 19 C-1.22171552 16.39634072 -1.42784859 13.79303507 -1.625 11.1875 C-1.68945312 10.44951172 -1.75390625 9.71152344 -1.8203125 8.95117188 C-2.2265625 3.33984375 -2.2265625 3.33984375 0 0 Z " fill="#211E19" transform="translate(158,82)"/>
<path d="M0 0 C0 0.99 0 1.98 0 3 C-7.42857143 5.14285714 -7.42857143 5.14285714 -11 6 C-11.33 5.01 -11.66 4.02 -12 3 C-7.89542386 0.01485372 -5.02254631 -0.2954439 0 0 Z " fill="#0C0A08" transform="translate(41,18)"/>
<path d="M0 0 C1.39195915 4.17587745 -0.17676781 6.13474776 -2 10 C-1.67 9.67 -1.34 9.34 -1 9 C-0.34 8.34 0.32 7.68 1 7 C1.33 8.98 1.66 10.96 2 13 C-1.3 13 -4.6 13 -8 13 C-6.68 12.67 -5.36 12.34 -4 12 C-3.81824219 11.07767578 -3.81824219 11.07767578 -3.6328125 10.13671875 C-3.38144531 8.92435547 -3.38144531 8.92435547 -3.125 7.6875 C-2.96257813 6.88699219 -2.80015625 6.08648437 -2.6328125 5.26171875 C-2 3 -2 3 0 0 Z " fill="#7F5C4B" transform="translate(58,109)"/>
<path d="M0 0 C1.34262065 0.29369827 2.67696283 0.6278958 4 1 C4.66 0.67 5.32 0.34 6 0 C4.125 4.75 4.125 4.75 3 7 C1.02 7 -0.96 7 -3 7 C-2.25 2.25 -2.25 2.25 0 0 Z " fill="#292520" transform="translate(108,102)"/>
<path d="M0 0 C1.65 0.33 3.3 0.66 5 1 C4.67 3.64 4.34 6.28 4 9 C3.34 9 2.68 9 2 9 C2 8.34 2 7.68 2 7 C0.68 7.33 -0.64 7.66 -2 8 C-2.33 7.01 -2.66 6.02 -3 5 C-1.5625 2.3125 -1.5625 2.3125 0 0 Z " fill="#2C2823" transform="translate(99,101)"/>
<path d="M0 0 C3 1 3 1 4.1875 3.0625 C5.25719917 6.9298739 5.26323609 9.98564965 5 14 C4.34 14.66 3.68 15.32 3 16 C1.91681831 10.6787385 0.847126 5.36513131 0 0 Z " fill="#2A231C" transform="translate(146,18)"/>
<path d="M0 0 C0.66 0 1.32 0 2 0 C4.10575375 5.52760359 5.37851209 10.06997733 5 16 C4.01 15.67 3.02 15.34 2 15 C1.34 10.05 0.68 5.1 0 0 Z " fill="#1D1915" transform="translate(154,13)"/>
<path d="M0 0 C0.33 0 0.66 0 1 0 C1.12375 0.969375 1.2475 1.93875 1.375 2.9375 C1.58125 3.948125 1.7875 4.95875 2 6 C2.66 6.33 3.32 6.66 4 7 C2.875 9.875 2.875 9.875 1 13 C-2.1875 14.375 -2.1875 14.375 -5 15 C-4.360625 14.01 -3.72125 13.02 -3.0625 12 C-0.74593674 7.99717514 -0.32145895 4.58078998 0 0 Z " fill="#1D1812" transform="translate(184,75)"/>
<path d="M0 0 C1.32 1.32 2.64 2.64 4 4 C4.33 3.34 4.66 2.68 5 2 C5.33 3.32 5.66 4.64 6 6 C3.08291076 7.98362069 1.87619096 7.9876191 -1.75 7.625 C-2.8225 7.41875 -3.895 7.2125 -5 7 C-4.0409375 6.6596875 -4.0409375 6.6596875 -3.0625 6.3125 C-0.72806339 5.14749104 -0.72806339 5.14749104 -0.25 2.375 C-0.1675 1.59125 -0.085 0.8075 0 0 Z " fill="#292521" transform="translate(120,23)"/>
<path d="M0 0 C0.66 0 1.32 0 2 0 C2.08126087 2.08268593 2.13930839 4.16628658 2.1875 6.25 C2.23970703 7.99023438 2.23970703 7.99023438 2.29296875 9.765625 C2 13 2 13 -1 17 C-0.67 11.39 -0.34 5.78 0 0 Z " fill="#0B0907" transform="translate(158,89)"/>
<path d="M0 0 C0.99 0.33 1.98 0.66 3 1 C2.67 2.65 2.34 4.3 2 6 C0.02 6 -1.96 6 -4 6 C-4 5.01 -4 4.02 -4 3 C-2.1875 1.25 -2.1875 1.25 0 0 Z " fill="#E26933" transform="translate(113,75)"/>
<path d="M0 0 C2.18614424 2.18614424 2.68256535 3.53879949 3.625 6.4375 C3.88539062 7.21996094 4.14578125 8.00242187 4.4140625 8.80859375 C5 11 5 11 5 14 C4.34 14 3.68 14 3 14 C3 12.35 3 10.7 3 9 C2.34 9 1.68 9 1 9 C0.67 9.66 0.34 10.32 0 11 C-1 10 -1 10 -1.0625 7.4375 C-1.041875 6.633125 -1.02125 5.82875 -1 5 C-0.34 5 0.32 5 1 5 C0.67 3.35 0.34 1.7 0 0 Z " fill="#1C1815" transform="translate(23,56)"/>
<path d="M0 0 C0.99 0.99 1.98 1.98 3 3 C2.24172908 4.17487036 1.46792245 5.33972592 0.6875 6.5 C0.25824219 7.1496875 -0.17101562 7.799375 -0.61328125 8.46875 C-1.07089844 8.9740625 -1.52851563 9.479375 -2 10 C-2.99 10 -3.98 10 -5 10 C-4.38545304 6.00544473 -2.29353263 3.25533664 0 0 Z " fill="#1C1915" transform="translate(28,22)"/>
<path d="M0 0 C1.32 0.66 2.64 1.32 4 2 C3.21625 2.391875 2.4325 2.78375 1.625 3.1875 C-1.35156418 5.24274669 -1.98823563 6.59679258 -3 10 C-3.66 9.67 -4.32 9.34 -5 9 C-4.67 7.02 -4.34 5.04 -4 3 C-2.68 2.67 -1.36 2.34 0 2 C0 1.34 0 0.68 0 0 Z " fill="#B87662" transform="translate(57,103)"/>
<path d="M0 0 C1.25541557 3.76624671 0.37061958 5.37188934 -1 9 C-2.32 9 -3.64 9 -5 9 C-4.34 6.69 -3.68 4.38 -3 2 C-2.01 2 -1.02 2 0 2 C0 1.34 0 0.68 0 0 Z " fill="#BD7966" transform="translate(55,112)"/>
<path d="M0 0 C8.57142857 -0.28571429 8.57142857 -0.28571429 12 2 C11.34 3.32 10.68 4.64 10 6 C8.68 6 7.36 6 6 6 C6.33 4.68 6.66 3.36 7 2 C4.69 1.67 2.38 1.34 0 1 C0 0.67 0 0.34 0 0 Z " fill="#2D2924" transform="translate(109,99)"/>
<path d="M0 0 C4.60853797 0.72008406 8.67237409 2.31295939 13 4 C13 4.66 13 5.32 13 6 C8.15311808 5.21824485 3.6233633 3.60155722 -1 2 C-0.67 1.34 -0.34 0.68 0 0 Z " fill="#24201C" transform="translate(127,55)"/>
<path d="M0 0 C0.99 0.495 0.99 0.495 2 1 C1.01 1.495 1.01 1.495 0 2 C0 1.34 0 0.68 0 0 Z M-3 3 C-2.34 3.33 -1.68 3.66 -1 4 C-2.28965176 5.37562854 -3.62689293 6.70766393 -5 8 C-5.66 8 -6.32 8 -7 8 C-6 5 -6 5 -3 3 Z M-10 9 C-9.34 9.33 -8.68 9.66 -8 10 C-8.99 10.66 -9.98 11.32 -11 12 C-10.67 11.01 -10.34 10.02 -10 9 Z M-13 12 C-12.34 12.33 -11.68 12.66 -11 13 C-11.99 13.66 -12.98 14.32 -14 15 C-13.67 14.01 -13.34 13.02 -13 12 Z " fill="#B16E58" transform="translate(49,48)"/>
<path d="M0 0 C3.39417765 3.12621626 5.6062718 5.56541027 7 10 C4.13302508 8.71480435 2.02392288 7.42870746 0 5 C0 4.34 0 3.68 0 3 C-0.66 2.67 -1.32 2.34 -2 2 C-1.34 2 -0.68 2 0 2 C0 1.34 0 0.68 0 0 Z " fill="#3A2E23" transform="translate(51,37)"/>
<path d="M0 0 C3.3 0 6.6 0 10 0 C10.33 0.66 10.66 1.32 11 2 C10.30132812 2.13277344 9.60265625 2.26554687 8.8828125 2.40234375 C7.97273437 2.57894531 7.06265625 2.75554688 6.125 2.9375 C5.22007812 3.11152344 4.31515625 3.28554688 3.3828125 3.46484375 C1.00043683 3.89963701 1.00043683 3.89963701 -1 5 C-0.67 3.35 -0.34 1.7 0 0 Z " fill="#261D16" transform="translate(134,16)"/>
<path d="M0 0 C0.99 0 1.98 0 3 0 C3.33 0.99 3.66 1.98 4 3 C3.01 3 2.02 3 1 3 C0.67 4.32 0.34 5.64 0 7 C-0.99 7 -1.98 7 -3 7 C-2.25 2.25 -2.25 2.25 0 0 Z " fill="#110F0D" transform="translate(98,98)"/>
<path d="M0 0 C0.33 0 0.66 0 1 0 C1.33 2.31 1.66 4.62 2 7 C4.97 6.01 7.94 5.02 11 4 C11 4.99 11 5.98 11 7 C8.24921116 7.91692961 6.64051087 8.10886083 3.8125 8.0625 C1.9253125 8.0315625 1.9253125 8.0315625 0 8 C0 5.36 0 2.72 0 0 Z " fill="#28241F" transform="translate(118,89)"/>
<path d="M0 0 C0.33 0.66 0.66 1.32 1 2 C0.10333658 4.24310013 -0.89146683 6.44754321 -1.9375 8.625 C-2.50339844 9.81351563 -3.06929687 11.00203125 -3.65234375 12.2265625 C-4.09707031 13.14179687 -4.54179687 14.05703125 -5 15 C-6.21940083 11.3417975 -5.63709904 10.41551324 -4.1875 6.9375 C-3.83042969 6.05964844 -3.47335938 5.18179688 -3.10546875 4.27734375 C-2 2 -2 2 0 0 Z " fill="#6E665A" transform="translate(24,66)"/>
<path d="M0 0 C1.76923828 0.01353516 1.76923828 0.01353516 3.57421875 0.02734375 C4.47785156 0.03894531 5.38148437 0.05054688 6.3125 0.0625 C6.3125 0.3925 6.3125 0.7225 6.3125 1.0625 C-5.20914009 3.35862756 -5.20914009 3.35862756 -10.6875 3.0625 C-8.63221196 -1.04807609 -4.03316787 -0.03993236 0 0 Z " fill="#24201C" transform="translate(118.6875,54.9375)"/>
<path d="M0 0 C1.485 0.99 1.485 0.99 3 2 C3.40843923 4.71203652 3.13336867 7.2437142 3 10 C2.34 10 1.68 10 1 10 C0.63883954 8.5225254 0.28624952 7.04295325 -0.0625 5.5625 C-0.25972656 4.73878906 -0.45695312 3.91507813 -0.66015625 3.06640625 C-0.82837891 2.04353516 -0.82837891 2.04353516 -1 1 C-0.67 0.67 -0.34 0.34 0 0 Z " fill="#5A5046" transform="translate(113,38)"/>
<path d="M0 0 C1.32 0.66 2.64 1.32 4 2 C1.69 3.65 -0.62 5.3 -3 7 C-3.66 5.68 -4.32 4.36 -5 3 C-3.35 2.67 -1.7 2.34 0 2 C0 1.34 0 0.68 0 0 Z " fill="#181511" transform="translate(142,162)"/>
<path d="M0 0 C-0.1875 2.375 -0.1875 2.375 -1 5 C-3.5625 6.3125 -3.5625 6.3125 -6 7 C-6 5.35 -6 3.7 -6 2 C-2.25 0 -2.25 0 0 0 Z " fill="#A76F5B" transform="translate(50,109)"/>
<path d="M0 0 C1.32 0 2.64 0 4 0 C3.34 2.31 2.68 4.62 2 7 C1.01 7 0.02 7 -1 7 C-0.67 4.69 -0.34 2.38 0 0 Z " fill="#2E1309" transform="translate(166,131)"/>
<path d="M0 0 C0.33 0.66 0.66 1.32 1 2 C1.99 1.67 2.98 1.34 4 1 C3.34 3.31 2.68 5.62 2 8 C0.68 8.33 -0.64 8.66 -2 9 C-2 8.34 -2 7.68 -2 7 C-1.34 7 -0.68 7 0 7 C0 4.69 0 2.38 0 0 Z " fill="#AE7463" transform="translate(171,70)"/>
<path d="M0 0 C1 3 1 3 0.22265625 4.82421875 C-0.8515625 6.54947917 -1.92578125 8.27473958 -3 10 C-4.0625 8.125 -4.0625 8.125 -5 6 C-4.67 5.34 -4.34 4.68 -4 4 C-3.34 4 -2.68 4 -2 4 C-1.34 2.68 -0.68 1.36 0 0 Z " fill="#2C2722" transform="translate(90,69)"/>
<path d="M0 0 C-0.66 1.32 -1.32 2.64 -2 4 C-4.64 3.34 -7.28 2.68 -10 2 C-3.75 -1.125 -3.75 -1.125 0 0 Z " fill="#1C1915" transform="translate(150,7)"/>
<path d="M0 0 C4.38889325 0.66498383 7.9811485 2.18757677 12 4 C11.67 4.66 11.34 5.32 11 6 C9.3509698 5.38348417 7.70584159 4.75652258 6.0625 4.125 C5.14597656 3.77695313 4.22945312 3.42890625 3.28515625 3.0703125 C1 2 1 2 0 0 Z " fill="#322F26" transform="translate(49,174)"/>
<path d="M0 0 C3.3 0 6.6 0 10 0 C6.99382731 3.00617269 4.17618402 2.59585316 0 3 C0 2.01 0 1.02 0 0 Z " fill="#0B0906" transform="translate(136,6)"/>
<path d="M0 0 C0.66 0 1.32 0 2 0 C1.745504 1.48206495 1.47088238 2.96068615 1.1875 4.4375 C1.03667969 5.26121094 0.88585937 6.08492187 0.73046875 6.93359375 C0.48941406 7.61550781 0.24835938 8.29742187 0 9 C-0.99 9.33 -1.98 9.66 -3 10 C-2.01 6.7 -1.02 3.4 0 0 Z " fill="#FF4105" transform="translate(179,135)"/>
<path d="M0 0 C0.66 0 1.32 0 2 0 C0.125 5.75 0.125 5.75 -1 8 C-1.66 8 -2.32 8 -3 8 C-2.25 2.25 -2.25 2.25 0 0 Z " fill="#574D44" transform="translate(69,133)"/>
<path d="M0 0 C0.99 0.33 1.98 0.66 3 1 C3 1.66 3 2.32 3 3 C4.32 3.66 5.64 4.32 7 5 C7 5.66 7 6.32 7 7 C5.68 6.67 4.36 6.34 3 6 C3 5.34 3 4.68 3 4 C2.01 3.67 1.02 3.34 0 3 C0 2.01 0 1.02 0 0 Z " fill="#5E5349" transform="translate(78,57)"/>
<path d="M0 0 C0.66 0 1.32 0 2 0 C3.5625 2.8125 3.5625 2.8125 5 6 C4.67 6.99 4.34 7.98 4 9 C0 3.375 0 3.375 0 0 Z " fill="#574E44" transform="translate(100,44)"/>
<path d="M0 0 C4.54805635 -0.17835515 7.8794254 0.00214565 12 2 C12 2.33 12 2.66 12 3 C7.45194365 3.17835515 4.1205746 2.99785435 0 1 C0 0.67 0 0.34 0 0 Z " fill="#100E0C" transform="translate(108,29)"/>
<path d="M0 0 C0.66 0 1.32 0 2 0 C0.125 5.75 0.125 5.75 -1 8 C-1.66 8 -2.32 8 -3 8 C-2.25 2.25 -2.25 2.25 0 0 Z " fill="#594F45" transform="translate(72,150)"/>
<path d="M0 0 C0.66 0.33 1.32 0.66 2 1 C1.01 1.66 0.02 2.32 -1 3 C-0.67 2.01 -0.34 1.02 0 0 Z M-3 3 C-2.34 3.33 -1.68 3.66 -1 4 C-6.75 9 -6.75 9 -9 9 C-9 8.34 -9 7.68 -9 7 C-7.03852126 5.61061923 -5.03833424 4.2739589 -3 3 Z " fill="#2C2823" transform="translate(146,152)"/>
<path d="M0 0 C0.33 0 0.66 0 1 0 C1.36923077 4.55384615 1.36923077 4.55384615 -0.5 6.8125 C-0.995 7.204375 -1.49 7.59625 -2 8 C-2.66 7.67 -3.32 7.34 -4 7 C-1.125 1.125 -1.125 1.125 0 0 Z " fill="#594F45" transform="translate(106,148)"/>
<path d="M0 0 C-2.97 1.65 -5.94 3.3 -9 5 C-9.66 4.34 -10.32 3.68 -11 3 C-4.5 -1.125 -4.5 -1.125 0 0 Z " fill="#BAB09F" transform="translate(109,61)"/>
<path d="M0 0 C1.32 0.33 2.64 0.66 4 1 C4 1.99 4 2.98 4 4 C4.66 4 5.32 4 6 4 C5.67 4.99 5.34 5.98 5 7 C2.5 5.1875 2.5 5.1875 0 3 C0 2.01 0 1.02 0 0 Z " fill="#60554B" transform="translate(87,48)"/>
<path d="M0 0 C0.66 0 1.32 0 2 0 C1.71848913 1.31471568 1.42446661 2.62675767 1.125 3.9375 C0.96257812 4.66839844 0.80015625 5.39929688 0.6328125 6.15234375 C0 8 0 8 -2 9 C-1.125 1.125 -1.125 1.125 0 0 Z " fill="#5B5147" transform="translate(130,149)"/>
<path d="M0 0 C0.33 0 0.66 0 1 0 C2.55577239 5.65735415 1.24281523 8.79666866 -1 14 C-2.13732426 10.59598052 -1.83989957 8.22543336 -1.0625 4.75 C-0.86785156 3.85796875 -0.67320312 2.9659375 -0.47265625 2.046875 C-0.31667969 1.37140625 -0.16070312 0.6959375 0 0 Z " fill="#1D1A16" transform="translate(171,111)"/>
<path d="M0 0 C0.66 0 1.32 0 2 0 C1 3 1 3 -2 5 C-4.6875 5.125 -4.6875 5.125 -7 5 C-6.67 4.01 -6.34 3.02 -6 2 C-4.02 2 -2.04 2 0 2 C0 1.34 0 0.68 0 0 Z " fill="#100E0C" transform="translate(111,107)"/>
<path d="M0 0 C0.99 0.66 1.98 1.32 3 2 C2.6875 3.9375 2.6875 3.9375 2 6 C1.01 6.33 0.02 6.66 -1 7 C-2 4 -2 4 -1.0625 1.8125 C-0.5365625 0.9153125 -0.5365625 0.9153125 0 0 Z " fill="#17120F" transform="translate(116,104)"/>
<path d="M0 0 C0.99 0 1.98 0 3 0 C2.67 1.98 2.34 3.96 2 6 C1.01 6.33 0.02 6.66 -1 7 C-0.67 4.69 -0.34 2.38 0 0 Z " fill="#14120F" transform="translate(156,104)"/>
<path d="M0 0 C2.1640625 -0.29296875 2.1640625 -0.29296875 4.625 -0.1875 C5.44226562 -0.16042969 6.25953125 -0.13335937 7.1015625 -0.10546875 C8.04128906 -0.05326172 8.04128906 -0.05326172 9 0 C5.25 2 5.25 2 3 2 C2.67 2.66 2.34 3.32 2 4 C2 3.34 2 2.68 2 2 C0.68 2.33 -0.64 2.66 -2 3 C-1.34 2.01 -0.68 1.02 0 0 Z " fill="#C7B19D" transform="translate(51,98)"/>
<path d="M0 0 C-0.33 1.65 -0.66 3.3 -1 5 C-2.32 4.67 -3.64 4.34 -5 4 C-5 3.01 -5 2.02 -5 1 C-3 0 -3 0 0 0 Z " fill="#2D2925" transform="translate(152,42)"/>
<path d="M0 0 C1.9375 0.6875 1.9375 0.6875 4 2 C4.75 4.625 4.75 4.625 5 7 C2 6 2 6 0 3 C0 2.01 0 1.02 0 0 Z " fill="#5A5046" transform="translate(73,39)"/>
<path d="M0 0 C1.9375 0.6875 1.9375 0.6875 4 2 C4.75 4.625 4.75 4.625 5 7 C4.01 6.67 3.02 6.34 2 6 C0.8125 2.9375 0.8125 2.9375 0 0 Z " fill="#60544A" transform="translate(87,35)"/>
<path d="M0 0 C0.66 0 1.32 0 2 0 C1.67 1.98 1.34 3.96 1 6 C0.34 6 -0.32 6 -1 6 C-1 6.66 -1 7.32 -1 8 C-1.66 7.67 -2.32 7.34 -3 7 C-2.01 4.69 -1.02 2.38 0 0 Z " fill="#5F544A" transform="translate(91,146)"/>
<path d="M0 0 C0.66 0 1.32 0 2 0 C1.34 2.31 0.68 4.62 0 7 C-0.66 7 -1.32 7 -2 7 C-1.125 1.125 -1.125 1.125 0 0 Z " fill="#846150" transform="translate(48,103)"/>
<path d="M0 0 C0.66 0.33 1.32 0.66 2 1 C1.67 2.65 1.34 4.3 1 6 C-0.32 6.33 -1.64 6.66 -3 7 C-1.125 2.25 -1.125 2.25 0 0 Z " fill="#171411" transform="translate(105,100)"/>
<path d="M0 0 C0.99 0.33 1.98 0.66 3 1 C3.33 2.65 3.66 4.3 4 6 C3.01 6 2.02 6 1 6 C0.34 4.35 -0.32 2.7 -1 1 C-0.67 0.67 -0.34 0.34 0 0 Z " fill="#B77966" transform="translate(173,85)"/>
<path d="M0 0 C0.66 0 1.32 0 2 0 C2 1.65 2 3.3 2 5 C2.99 4.67 3.98 4.34 5 4 C5.33 5.32 5.66 6.64 6 8 C4.68 7.67 3.36 7.34 2 7 C1.34 4.69 0.68 2.38 0 0 Z " fill="#2F2B26" transform="translate(24,65)"/>
<path d="M0 0 C0.33 0 0.66 0 1 0 C1.33 1.98 1.66 3.96 2 6 C-1.75 7.125 -1.75 7.125 -4 6 C-3.01 5.67 -2.02 5.34 -1 5 C-0.67 3.35 -0.34 1.7 0 0 Z " fill="#4A392B" transform="translate(148,36)"/>
<path d="M0 0 C0.33 0.66 0.66 1.32 1 2 C1.99 2 2.98 2 4 2 C4 3.65 4 5.3 4 7 C3.34 7 2.68 7 2 7 C0.3125 4.625 0.3125 4.625 -1 2 C-0.67 1.34 -0.34 0.68 0 0 Z " fill="#2A2622" transform="translate(61,35)"/>
<path d="M0 0 C3.625 -0.1875 3.625 -0.1875 7 0 C6.67 0.66 6.34 1.32 6 2 C3.35139573 2.59355614 0.70802678 2.74209269 -2 3 C-1.34 2.01 -0.68 1.02 0 0 Z " fill="#3A3430" transform="translate(91,24)"/>
<path d="M0 0 C1 2 2 4 3 6 C1.35 6.33 -0.3 6.66 -2 7 C-1.34 4.69 -0.68 2.38 0 0 Z " fill="#342F2A" transform="translate(127,104)"/>
<path d="M0 0 C2.31 0.33 4.62 0.66 7 1 C3.375 4 3.375 4 0 4 C0 2.68 0 1.36 0 0 Z " fill="#191613" transform="translate(109,100)"/>
<path d="M0 0 C0.66 0.33 1.32 0.66 2 1 C2.33 1.99 2.66 2.98 3 4 C3.66 4.66 4.32 5.32 5 6 C3.35 5.67 1.7 5.34 0 5 C-0.5625 3.0625 -0.5625 3.0625 -1 1 C-0.67 0.67 -0.34 0.34 0 0 Z " fill="#2F271F" transform="translate(106,76)"/>
<path d="M0 0 C1.41687119 4.25061356 0.19320039 6.71851625 -1 11 C-1.33 11 -1.66 11 -2 11 C-2.05399736 9.54207116 -2.09279177 8.08357288 -2.125 6.625 C-2.15980469 5.40683594 -2.15980469 5.40683594 -2.1953125 4.1640625 C-2 2 -2 2 0 0 Z " fill="#1F1914" transform="translate(33,38)"/>
<path d="M0 0 C-0.8125 1.9375 -0.8125 1.9375 -2 4 C-2.99 4.33 -3.98 4.66 -5 5 C-5 4.01 -5 3.02 -5 2 C-2 0 -2 0 0 0 Z " fill="#FF3810" transform="translate(162,154)"/>
<path d="M0 0 C0.66 0.66 1.32 1.32 2 2 C0.35 2.66 -1.3 3.32 -3 4 C-2.67 3.01 -2.34 2.02 -2 1 C-1.34 0.67 -0.68 0.34 0 0 Z " fill="#F42607" transform="translate(136,174)"/>
<path d="M0 0 C0.66 0.33 1.32 0.66 2 1 C1.01 2.485 1.01 2.485 0 4 C-0.66 4 -1.32 4 -2 4 C-1.34 2.68 -0.68 1.36 0 0 Z " fill="#FF0000" transform="translate(167,146)"/>
<path d="M0 0 C0.66 0 1.32 0 2 0 C1.34 1.32 0.68 2.64 0 4 C0 2.68 0 1.36 0 0 Z " fill="#FF1A00" transform="translate(172,143)"/>
<path d="M0 0 C0.66 0.66 1.32 1.32 2 2 C0.68 2.33 -0.64 2.66 -2 3 C-2 2.34 -2 1.68 -2 1 C-1.34 0.67 -0.68 0.34 0 0 Z " fill="#D5813D" transform="translate(183,124)"/>
<path d="M0 0 C0.66 0 1.32 0 2 0 C1.67 0.99 1.34 1.98 1 3 C0.67 2.01 0.34 1.02 0 0 Z " fill="#FFB200" transform="translate(8,141)"/>
<path d="" fill="#FFFF00" transform="translate(0,0)"/>
<path d="" fill="#FF0000" transform="translate(0,0)"/>
</svg>
